<?xml version="1.0" standalone="no"?>
<!DOCTYPE svg PUBLIC "-//W3C//DTD SVG 20010904//EN"
 "http://www.w3.org/TR/2001/REC-SVG-20010904/DTD/svg10.dtd">
<svg version="1.0" xmlns="http://www.w3.org/2000/svg"
 width="665.000000pt" height="665.000000pt" viewBox="0 0 665.000000 665.000000"
 preserveAspectRatio="xMidYMid meet">
<metadata>
Created by potrace 1.11, written by Peter Selinger 2001-2013
</metadata>
<g transform="translate(0.000000,665.000000) scale(0.100000,-0.100000)"
fill="#000000" stroke="none">
<path d="M3360 6566 c-62 -42 -229 -207 -296 -292 -54 -68 -127 -233 -129
-289 0 -11 -4 -26 -9 -33 -4 -7 -9 -23 -11 -35 -18 -139 -37 -215 -99 -407
-25 -74 -50 -164 -57 -200 -10 -55 -24 -113 -44 -192 -10 -36 -13 -56 -19
-104 -30 -257 -37 -344 -35 -434 5 -195 4 -325 -3 -410 -4 -47 -8 -149 -9
-228 -1 -184 -3 -186 -137 -197 -29 -2 -78 -5 -110 -6 -31 -1 -73 -8 -93 -15
-20 -6 -69 -15 -110 -19 -41 -3 -87 -10 -104 -15 -42 -12 -206 -38 -290 -45
-86 -8 -286 -53 -460 -105 -71 -21 -148 -42 -170 -45 -22 -4 -45 -11 -50 -16
-6 -4 -26 -11 -45 -14 -19 -3 -63 -19 -99 -35 -36 -16 -79 -32 -96 -35 -44
-10 -280 -102 -347 -135 -84 -42 -134 -78 -250 -183 -190 -173 -248 -234 -248
-260 0 -13 -6 -42 -14 -63 -11 -32 -13 -190 -12 -884 1 -465 6 -863 10 -885 4
-22 7 -46 8 -52 1 -7 5 -13 10 -13 4 0 8 -5 8 -11 0 -30 117 -175 186 -229 31
-25 115 -80 121 -80 3 0 22 -10 42 -22 20 -13 38 -23 41 -24 14 -2 47 -18 60
-29 8 -6 47 -25 85 -40 39 -16 75 -32 80 -36 15 -10 239 -97 272 -105 15 -4
33 -9 38 -13 6 -3 15 -6 20 -8 6 -1 21 -5 35 -8 14 -4 50 -9 80 -12 31 -3 58
-12 63 -20 5 -7 12 -11 17 -8 4 3 38 -6 74 -20 36 -14 66 -22 66 -20 0 3 8 1
19 -4 10 -6 32 -13 50 -16 17 -3 64 -12 104 -21 39 -9 83 -17 97 -18 14 -2 32
-5 40 -9 8 -3 38 -8 67 -11 28 -3 57 -8 65 -10 12 -5 73 -15 128 -21 14 -2 57
-8 95 -14 39 -6 86 -13 105 -15 19 -3 35 -5 35 -6 0 -1 11 -3 25 -5 59 -7 118
-14 165 -20 155 -20 428 -28 995 -28 373 0 735 6 735 13 0 0 29 3 65 5 36 3
88 7 115 10 28 3 73 7 102 10 29 2 72 7 95 11 77 10 102 13 136 15 17 1 32 5
32 8 0 3 15 6 33 7 17 0 51 4 75 7 23 4 59 9 80 12 45 6 77 13 77 16 0 1 14 3
30 4 17 2 68 11 115 20 47 10 91 18 98 18 6 0 12 3 12 6 0 4 11 6 25 6 14 -1
57 7 97 17 40 11 82 21 93 23 11 2 38 9 60 15 22 6 49 12 61 14 11 2 25 6 31
9 5 3 22 8 37 11 27 5 86 22 116 33 8 3 20 7 27 9 21 4 88 26 98 33 6 3 19 7
29 8 11 2 24 7 30 12 6 4 35 16 64 26 28 11 52 23 52 27 0 4 3 7 8 6 15 -3
152 61 164 77 4 5 8 6 8 2 0 -5 14 1 30 13 17 12 30 18 30 13 0 -4 4 -3 8 2 4
6 23 18 42 29 131 70 234 159 307 264 18 26 38 53 44 60 6 8 14 28 18 45 4 18
7 370 6 782 l0 750 -22 35 -21 35 24 35 c34 48 57 131 60 217 2 70 1 72 -26
83 -15 6 -33 22 -40 36 -8 13 -17 24 -22 24 -5 0 -35 21 -67 48 -89 73 -246
184 -302 214 -28 14 -57 36 -65 47 -17 24 -188 116 -289 156 -38 15 -92 36
-118 47 -27 10 -63 21 -80 23 -54 7 -127 27 -127 34 0 6 -48 25 -90 36 -3 1
-36 11 -75 22 -61 19 -103 28 -165 37 -14 2 -26 5 -100 22 -14 3 -47 8 -75 10
-27 3 -97 16 -156 29 -58 14 -134 26 -170 27 -35 2 -66 6 -69 9 -8 11 -72 18
-217 25 -76 3 -167 7 -203 9 -36 2 -82 3 -103 4 -57 2 -60 17 -63 316 -3 405
-16 693 -34 741 -6 14 -12 58 -15 97 -3 40 -7 90 -10 112 -3 22 -8 58 -11 80
-3 22 -14 72 -24 110 -10 39 -30 113 -44 167 -46 170 -104 348 -138 416 -27
57 -33 82 -39 172 -9 135 -19 167 -87 269 -30 46 -61 98 -67 115 -6 17 -16 41
-23 53 -7 12 -16 39 -20 60 -6 28 -13 37 -25 35 -13 -2 -17 5 -17 32 0 40 -18
86 -34 86 -6 0 -40 -20 -76 -44z"/>
</g>
</svg>
